<?xml version="1.0" standalone="no"?><!DOCTYPE svg PUBLIC "-//W3C//DTD SVG 1.1//EN" "http://www.w3.org/Graphics/SVG/1.1/DTD/svg11.dtd"><svg t="1772710572713" class="icon" viewBox="0 0 1024 1024" version="1.1" xmlns="http://www.w3.org/2000/svg" p-id="7457" xmlns:xlink="http://www.w3.org/1999/xlink" width="200" height="200"><path d="M512 20.48C240.64 20.48 20.48 240.64 20.48 512s220.16 491.52 491.52 491.52 491.52-220.16 491.52-491.52S783.36 20.48 512 20.48z m270.336 304.128l-98.304 462.848c-7.168 32.768-26.624 40.96-53.248 25.6L482.304 703.488l-71.68 69.632c-8.192 7.168-15.36 15.36-29.696 15.36l10.24-152.576L665.6 385.024c13.312-10.24-2.048-16.384-18.432-5.12L306.176 593.92l-146.432-46.08c-31.744-10.24-32.768-31.744 6.144-48.128l574.464-221.184c26.624-11.264 50.176 5.12 41.984 46.08z" p-id="7458"></path></svg>