<?xml version="1.0" standalone="no"?><!DOCTYPE svg PUBLIC "-//W3C//DTD SVG 1.1//EN" "http://www.w3.org/Graphics/SVG/1.1/DTD/svg11.dtd"><svg t="1772710525408" class="icon" viewBox="0 0 1024 1024" version="1.1" xmlns="http://www.w3.org/2000/svg" p-id="5576" xmlns:xlink="http://www.w3.org/1999/xlink" width="200" height="200"><path d="M790.96093903 483.67341766c-10.5387396-3.19044559-15.63014928-5.21627351-18.1332604-10.39637151-0.70483875-1.45752251-2.88587123-5.97479202 1.35599772-16.72941766 19.56744388-49.54292877 11.07787123-78.05388946 0.50762393-93.24876581-10.03695043-14.4468604-31.86361253-31.67806723-78.80657322-31.67806724-36.53725356 0-82.88856979 11.0592-130.53170143 31.13426781l-2.56962734 1.08759885-2.61047066 0.78885926c-5.23377777 1.61389402-8.72879772 1.94180741-10.76629516 1.94180741-2.33040228 0-6.57810598-0.47144843-8.88516923-3.64438974-1.22529915-1.6792433-2.8672-5.6165379-0.37575841-13.4491168 15.17620513-49.10648889 11.57849345-87.96130826-10.03228261-109.69694816-12.94732764-12.96483191-31.38516239-19.50792934-54.85372536-19.50792934-68.53739944 0-168.13671567 55.69042963-253.73844787 141.87797151-89.5553641 90.23686382-140.90940171 187.53611851-140.9094017 266.97051168 0 157.85353846 201.42750997 252.18406838 396.16488661 252.18406838 265.05321026 0 427.80677835-156.65858005 427.80677835-268.96716582 0-58.307902-42.4805379-106.39914303-113.62257322-128.66691282zM477.88183704 792.0146963c-11.17239431 1.10510313-22.40547008 1.66057208-33.37481482 1.66057208-115.49903133 0-205.12674644-59.03024502-213.11452992-140.36560228-8.89683875-90.58344843 85.40335043-171.64340513 214.68524673-184.52538348a339.12896183 339.12896183 0 0 1 33.41099031-1.67924331c115.47569231 0 205.0917379 59.01974245 213.06201709 140.35393277 8.866498 90.61378918-85.43369117 171.67374587-214.66890939 184.55572422z m478.4198017-354.34717721a30.6091396 30.6091396 0 0 1-29.69424957-37.7602188 183.65016979 183.65016979 0 0 0 5.07857322-42.92981425c0-100.30415498-81.60492308-181.91374587-181.91607977-181.91374587-7.65870313 0-15.36641824 0.47845014-22.90025755 1.42134701a30.49477835 30.49477835 0 0 1-33.48917608-27.17246723l-0.00583475-0.04201026a30.48310883 30.48310883 0 0 1 26.0265208-33.48334131 246.97362963 246.97362963 0 0 1 30.36991453-1.87529117c134.02672136 0 243.05500627 109.03995441 243.05500627 243.06550883 0 19.37723077-2.28839202 38.65760456-6.79982678 57.29848888a30.50178005 30.50178005 0 0 1-29.67674531 23.39737893l-0.04784501-0.00583476z" fill="#2C2C2C" p-id="5577"></path><path d="M849.42404558 398.17437721a27.21564444 27.21564444 0 0 1-26.77220285-31.88111681c0.80519658-4.61295954 1.14127864-9.38695841 1.00941311-14.1842963a70.10811624 70.10811624 0 0 0-21.99353619-49.01780056 69.51647179 69.51647179 0 0 0-48.02005697-19.11933448c-0.72234303 0-3.04574359 0.04784502-3.04574359 0.04784501a26.94607864 26.94607864 0 0 1-27.04877038-26.23540513 27.1082849 27.1082849 0 0 1 7.39730599-19.60945412 26.96474986 26.96474986 0 0 1 18.97579942-8.51407864 124.01894473 124.01894473 0 0 1 89.07224616 33.92561595 123.65485585 123.65485585 0 0 1 38.9913527 86.96823249 125.57799202 125.57799202 0 0 1-1.79827235 25.130302 27.16196467 27.16196467 0 0 1-26.75469859 22.5011601h-0.0361755v-0.01166951h0.02333904zM541.03608888 600.62413675c-11.86089572-24.55616183-35.71805356-43.08385185-65.48932194-50.81607293a126.40302678 126.40302678 0 0 0-32.15068262-4.09249915c-50.7203829 0-98.63191338 28.26706781-119.22744159 70.34734131-12.07561482 24.68802735-13.21572649 51.25251282-3.2382906 74.81093106 10.43254701 24.60984159 31.82160228 43.23322165 60.23803988 52.48831453a127.20939031 127.20939031 0 0 0 39.2422473 6.10549059c51.8313208 0 101.40459031-30.48310883 120.57760456-74.15860512 11.1362188-25.15364103 11.16655954-51.67611624 0.04667806-74.68490029zM389.94503475 697.72034188v-0.05367978c-17.67348149 2.0071567-31.83443875-8.04263021-31.83443874-22.60268489s12.65558974-29.61723077 30.23338119-31.37932764c20.1882621-1.91263362 33.44133106 9.53516125 33.44133106 24.20257551-0.00700171 14.46553162-14.26248205 27.82596011-31.84027351 29.8331168z m55.76278062-46.75858234c-6.02263704 4.42157949-13.35342678 3.76925356-16.4656866-1.51120228-3.31647636-5.10891396-2.00832364-13.45028376 3.9127886-17.67348148 7.03205014-5.10891396 14.2613151-3.6093812 17.37474188 1.51703704 3.11225983 5.11474872 0.90788832 13.05468718-4.82184388 17.66764672z" fill="#2C2C2C" p-id="5578"></path></svg>