<svg xmlns="http://www.w3.org/2000/svg" width="1024" height="1024" viewBox="0 0 1024 1024" role="img" aria-label="Standard Chartered China logo">
  <defs>
    <linearGradient id="scBlue" x1="0%" y1="0%" x2="100%" y2="100%">
      <stop offset="0%" stop-color="#49AEFF"/>
      <stop offset="100%" stop-color="#0072E9"/>
    </linearGradient>
    <linearGradient id="scGreen" x1="0%" y1="0%" x2="100%" y2="100%">
      <stop offset="0%" stop-color="#4AFF26"/>
      <stop offset="100%" stop-color="#2BD500"/>
    </linearGradient>
    <filter id="shadow" x="-20%" y="-20%" width="140%" height="140%">
      <feDropShadow dx="0" dy="8" stdDeviation="10" flood-color="#1D3D6B" flood-opacity="0.18"/>
    </filter>
  </defs>

  <rect x="16" y="16" width="992" height="992" rx="210" fill="#F8FAFD"/>
  <text x="196" y="212" font-family="Arial, sans-serif" font-size="116" font-weight="700" fill="#2E8FEA">CN</text>

  <g filter="url(#shadow)">
    <path d="M525 230c70 0 115 82 72 141L450 545l241 154-62 103-313-197c-52-33-58-107-11-148l161-140c17-15 38-23 59-23Z" fill="url(#scBlue)"/>
    <path d="M646 394c57 0 102 46 102 102 0 57-45 103-102 103H569l-44-103 44-102h77Z" fill="url(#scGreen)"/>
    <path d="M267 690h431c54 0 98 44 98 98s-44 98-98 98H267c-54 0-98-44-98-98s44-98 98-98Z" fill="url(#scGreen)"/>
    <path d="M247 748c40 0 73 32 73 72s-33 72-73 72-72-32-72-72 32-72 72-72Z" fill="url(#scBlue)"/>
  </g>
</svg>
