<svg width="1024" height="1024" viewBox="0 0 1024 1024" fill="none" xmlns="http://www.w3.org/2000/svg">
  <defs>
    <linearGradient id="bg" x1="0" y1="0" x2="1024" y2="1024" gradientUnits="userSpaceOnUse">
      <stop stop-color="#4EA7FF"/>
      <stop offset="1" stop-color="#1F5FD4"/>
    </linearGradient>
    <filter id="shadow" x="140" y="120" width="760" height="790" filterUnits="userSpaceOnUse" color-interpolation-filters="sRGB">
      <feDropShadow dx="0" dy="10" stdDeviation="10" flood-color="#1953A8" flood-opacity="0.35"/>
    </filter>
  </defs>

  <rect width="1024" height="1024" rx="220" fill="url(#bg)"/>

  <g filter="url(#shadow)">
    <rect x="222" y="670" width="158" height="186" rx="30" fill="#AFC4D8" stroke="#E5EDF5" stroke-width="5"/>
    <rect x="440" y="560" width="158" height="296" rx="30" fill="#AFC4D8" stroke="#E5EDF5" stroke-width="5"/>
    <rect x="658" y="430" width="158" height="426" rx="30" fill="#AFC4D8" stroke="#E5EDF5" stroke-width="5"/>

    <path d="M203 563C318 551 410 509 503 456C611 394 672 338 734 264"
      stroke="#B7CADD" stroke-width="58" stroke-linecap="round"/>

    <path d="M649 197L767 169C786 164 802 180 800 199L788 316"
      stroke="#B7CADD" stroke-width="58" stroke-linecap="round" stroke-linejoin="round"/>

    <path d="M203 563C318 551 410 509 503 456C611 394 672 338 734 264"
      stroke="#E5EDF5" stroke-opacity="0.92" stroke-width="6" stroke-linecap="round"/>
    <path d="M649 197L767 169C786 164 802 180 800 199L788 316"
      stroke="#E5EDF5" stroke-opacity="0.92" stroke-width="6" stroke-linecap="round" stroke-linejoin="round"/>
  </g>
</svg>
